<?xml version="1.0" standalone="no"?>
<!DOCTYPE svg PUBLIC "-//W3C//DTD SVG 20010904//EN"
 "http://www.w3.org/TR/2001/REC-SVG-20010904/DTD/svg10.dtd">
<svg version="1.0" xmlns="http://www.w3.org/2000/svg"
 width="300.000000pt" height="300.000000pt" viewBox="0 0 300.000000 300.000000"
 preserveAspectRatio="xMidYMid meet">
<metadata>
Created by potrace 1.14, written by Peter Selinger 2001-2017
</metadata>
<g transform="translate(0.000000,300.000000) scale(0.100000,-0.100000)"
fill="#000000" stroke="none">
<path d="M700 2493 c-359 -48 -600 -268 -600 -549 0 -149 39 -247 139 -344
105 -103 202 -146 584 -259 282 -84 365 -130 388 -214 48 -178 -148 -308 -415
-276 -154 19 -284 121 -311 247 l-7 32 -205 0 -206 0 7 -55 c25 -213 187 -402
428 -498 128 -52 189 -61 378 -61 203 1 278 16 419 85 237 116 358 364 296
604 -22 83 -58 144 -123 208 -108 106 -200 148 -538 247 -307 91 -384 132
-420 225 -35 94 10 191 113 241 55 28 65 29 193 29 125 0 139 -2 192 -27 94
-44 150 -115 172 -220 l6 -28 200 0 200 0 -6 43 c-24 168 -70 265 -178 372
-140 139 -286 194 -531 200 -77 2 -156 1 -175 -2z"/>
<path d="M1790 1520 l0 -980 550 0 550 0 0 185 0 185 -315 0 -315 0 0 795 0
795 -235 0 -235 0 0 -980z"/>
</g>
</svg>
